<svg xmlns="http://www.w3.org/2000/svg" viewBox="0 0 900 520" role="img" aria-label="3D digital services illustration">
  <defs>
    <linearGradient id="bg" x1="0" x2="1" y1="0" y2="1">
      <stop offset="0" stop-color="#eef5ff"/><stop offset="1" stop-color="#ffffff"/>
    </linearGradient>
    <linearGradient id="blue" x1="0" x2="1" y1="0" y2="1">
      <stop offset="0" stop-color="#1d6cff"/><stop offset="1" stop-color="#6ee7ff"/>
    </linearGradient>
    <linearGradient id="purple" x1="0" x2="1" y1="0" y2="1">
      <stop offset="0" stop-color="#7c3aed"/><stop offset="1" stop-color="#22d3ee"/>
    </linearGradient>
    <filter id="shadow" x="-20%" y="-20%" width="140%" height="140%"><feDropShadow dx="0" dy="20" stdDeviation="20" flood-color="#0f172a" flood-opacity=".16"/></filter>
  </defs>
  <rect width="900" height="520" rx="38" fill="url(#bg)"/>
  <circle cx="700" cy="95" r="74" fill="#dbeafe" opacity=".9"/>
  <circle cx="145" cy="420" r="85" fill="#e0f2fe" opacity=".95"/>
  <g filter="url(#shadow)">
    <rect x="210" y="95" width="430" height="295" rx="34" fill="#fff" stroke="#cbd5e1" stroke-width="3"/>
    <rect x="245" y="135" width="170" height="22" rx="11" fill="#dbeafe"/>
    <rect x="245" y="180" width="330" height="28" rx="14" fill="#eff6ff"/>
    <rect x="245" y="230" width="280" height="28" rx="14" fill="#eff6ff"/>
    <rect x="245" y="295" width="140" height="54" rx="18" fill="url(#blue)"/>
    <circle cx="580" cy="143" r="32" fill="url(#purple)"/>
  </g>
  <g filter="url(#shadow)">
    <rect x="105" y="155" width="170" height="130" rx="28" fill="#fff" stroke="#cbd5e1" stroke-width="3"/>
    <path d="M145 238c25-64 66-64 91 0" fill="none" stroke="url(#blue)" stroke-width="16" stroke-linecap="round"/>
    <circle cx="146" cy="238" r="11" fill="#1d6cff"/><circle cx="236" cy="238" r="11" fill="#22d3ee"/>
  </g>
  <g filter="url(#shadow)">
    <rect x="610" y="265" width="190" height="120" rx="28" fill="#fff" stroke="#cbd5e1" stroke-width="3"/>
    <circle cx="665" cy="326" r="26" fill="#dcfce7"/>
    <path d="M653 327l9 9 20-24" fill="none" stroke="#16a34a" stroke-width="9" stroke-linecap="round" stroke-linejoin="round"/>
    <rect x="705" y="304" width="60" height="14" rx="7" fill="#dbeafe"/>
    <rect x="705" y="334" width="78" height="14" rx="7" fill="#eff6ff"/>
  </g>
  <g opacity=".95">
    <circle cx="165" cy="90" r="16" fill="#1d6cff"/><circle cx="750" cy="440" r="18" fill="#7c3aed"/><circle cx="80" cy="345" r="10" fill="#22d3ee"/>
    <path d="M690 180l35 35m0-35l-35 35" stroke="#60a5fa" stroke-width="10" stroke-linecap="round"/>
  </g>
</svg>
